<svg xmlns="http://www.w3.org/2000/svg" width="688.901" height="643" viewBox="0 0 688.901 643"><g data-name="グループ 719"><g data-name="グループ 7" style="isolation:isolate"><path data-name="長方形 3" fill="#f9da4f" d="M230.901 118h85v525h-85z"/><path data-name="多角形 1" d="M273.901 43l75 98h-150z" fill="#f9da4f"/><path data-name="長方形 3" fill="#00a1d5" d="M484.901 75h86v568h-86z"/><path data-name="多角形 1" d="M527.901 0l75 98h-150z" fill="#00a1d5"/><path data-name="長方形 3" fill="#66ac54" d="M570.901 240h85v403h-85z"/><path data-name="多角形 1" d="M613.901 165l75 98h-150z" fill="#66ac54"/><path data-name="長方形 3" fill="#794281" d="M399.901 191h86v452h-86z"/><path data-name="多角形 1" d="M442.901 116l75 98h-150z" fill="#794281"/><path data-name="長方形 3" fill="#cb4985" d="M315.901 311h85v332h-85z"/><path data-name="多角形 1" d="M357.901 241l75 98h-150z" fill="#cb4985"/><path data-name="長方形 3" fill="#df8f44" d="M145.901 268h86v375h-86z"/><path data-name="多角形 1" d="M188.901 174l75 98h-150z" fill="#df8f44"/></g><g data-name="Magnifying glass" transform="translate(124.054 272.673)"><rect data-name="長方形 174" width="4.056" height="44.816" rx="2.028" transform="rotate(-29.89 57.417 -27.991)"/><rect data-name="長方形 175" width="4.056" height="44.816" rx="2.028" transform="rotate(-29.876 57.805 -26.481)" fill="#484848"/><path data-name="パス 1395" d="M13.76 7.905c7.6-4.365 17.454-1.475 22.01 6.456s2.093 17.896-5.511 22.265S12.805 38.1 8.249 30.17 6.156 12.273 13.76 7.905z" fill="#484848"/><ellipse data-name="楕円形 44" cx="13.393" cy="13.976" rx="13.393" ry="13.976" transform="rotate(-29.876 33.235 1.97)" fill="#fff"/><path data-name="パス 661" d="M12.251 28.584a.71.71 0 01-.616-.356 12.637 12.637 0 01-1.352-9.368 11.655 11.655 0 015.523-7.392.71.71 0 01.707 1.231 10.246 10.246 0 00-4.852 6.5 11.223 11.223 0 001.205 8.32.71.71 0 01-.615 1.063z" fill="#4a4a4a"/></g><path data-name="パス 687" d="M56.331 629.744L75.386 643h-37.7v-13.665s6.218-12.846 18.645.409z"/><path data-name="パス 688" d="M126.335 629.744L145.39 643h-37.695v-13.665s6.213-12.846 18.64.409z"/><path data-name="パス 689" d="M89.34 459.343s-1.162 73.556-12.251 90.092c-14.132 21.074-17.446 54.627-20.919 80.309l-22.458-.318s-4.014-52.591 14.332-78.8c2.9-4.142 5.814-39.65 4.175-48.02s-10.421-25.592 2.437-55.824 34.684 12.561 34.684 12.561z" fill="#c9c9c9"/><path data-name="パス 690" d="M102.724 450.381s18.344 78.13 16.156 89.474c-4.557 23.611 4.557 66.277 7.042 89.474H102.31s-19.518-47.92-8.285-77.876c3.728-9.942-9.113-41.009-13.255-48.465s-17.813-21.125-14.913-53.849 36.867 1.242 36.867 1.242z" fill="#ebebeb"/><path data-name="パス 691" d="M132.111 365.579l19.1-38.012 9.48-13.64a2.147 2.147 0 013.369.009l5.3 6.746a2.146 2.146 0 01-.4 3.041l-9.268 6.982-14.862 47.89a8.14 8.14 0 01-12.876-4.426 19.141 19.141 0 01.157-8.59z" fill="#ffd5c0"/><path data-name="パス 692" d="M96.314 364.655l38.662-5.606 9.334 18.652-62.205 18.874z" fill="#404040"/><path data-name="パス 693" d="M41.832 373.337l-39.352 34.8c-1.769 2.383-1.907 12.91.652 14.412l51.541 20.384v-13.262l-27.339-16.984 8.055-6.8c7.8-8.318 11.238-17.754 7.633-28.569z" fill="#ffd5c0"/><path data-name="パス 694" d="M40.175 368.778l-37.7 39.352c-1.769 2.383-1.907 12.91.652 14.412l24.2-9.855 9.942-6.213c7.8-8.317 9.352-18.337 5.747-29.153z" fill="#404040"/><path data-name="パス 695" d="M83.408 322.578s10.639 22.607 4.876 25.71a23.716 23.716 0 01-10.2 3.1l1.774 17.731s-15.515 6.649-19.948-2.66c0 0 6.206-10.2 7.093-17.731.005.003-14.177-24.379 16.405-26.15z" fill="#ffd5c0"/><path data-name="パス 696" d="M78.979 336.319s-3.546-2.714-3.546-.887c0 2.217 0 6.206 3.546 6.649 0 0-4.876 8.866-15.958 5.32s-11.082-16.4-1.33-23.937 19.948-12.855 26.153.886c-.004.001-10.195 6.65-8.865 11.969z" fill="#6f533a"/><path data-name="パス 697" d="M33.754 381.426a17.045 17.045 0 0117.057-16.376h45.286c4.971 0-3.728 38.938.414 59.649s7.456 30.653 7.456 30.653l-53.436.828s-17.796-47.105-16.777-74.754z" fill="#1a1a1a"/><path data-name="パス 698" d="M27.334 412.687l-22.161-7.525s-5.592 2.14-3.728 6.075c0 0-3.107 2.968-.207 5.316 0 0-2.071 3.59 2.071 6.075l25.545-9.044s-.694-1.311-1.52-.897z" fill="#262626"/><path data-name="パス 699" d="M135.102 358.758s-1.762-1.417-2.472.531c0 0-1.381-1.257-2.894.466l3.66 21.437s2.893 1.669 3.859-.621c0 0 2.129 1.347 2.773-.179 0 0 4.621-.3 4.884-1.987 0 0-9.181-21.404-9.81-19.647z" fill="#262626"/></g></svg>