<svg xmlns="http://www.w3.org/2000/svg" width="371" height="359" viewBox="0 0 371 359"><g data-name="グループ 719"><g data-name="グループ 7" style="isolation:isolate"><path data-name="長方形 3" fill="#f9da4f" d="M164 53h39v306h-39z"/><path data-name="多角形 1" d="M183.5 20L218 63h-69z" fill="#f9da4f"/><path data-name="長方形 3" fill="#00a1d5" d="M279 33h38v326h-38z"/><path data-name="多角形 1" d="M298.5 0L333 44h-69z" fill="#00a1d5"/><path data-name="長方形 3" fill="#66ac54" d="M317 107h39v252h-39z"/><path data-name="多角形 1" d="M337 75l34 43h-68z" fill="#66ac54"/><path data-name="長方形 3" fill="#794281" d="M241 85h39v274h-39z"/><path data-name="多角形 1" d="M260 51l34 44h-68z" fill="#794281"/><path data-name="長方形 3" fill="#cb4985" d="M203 139h38v220h-38z"/><path data-name="多角形 1" d="M221.5 107l33.5 45h-67z" fill="#cb4985"/><path data-name="長方形 3" fill="#df8f44" d="M125 119h40v240h-40z"/><path data-name="多角形 1" d="M145.5 78l34.5 44h-69z" fill="#df8f44"/></g><g data-name="Magnifying glass" transform="translate(80.305 119.257)"><rect data-name="長方形 174" width="2.625" height="29.011" rx="1.313" transform="rotate(-29.89 37.169 -18.12)"/><rect data-name="長方形 175" width="2.625" height="29.011" rx="1.313" transform="rotate(-29.876 37.42 -17.142)" fill="#484848"/><path data-name="パス 1395" d="M8.908 5.117a10.5 10.5 0 0114.248 4.179 10.5 10.5 0 01-3.568 14.412A10.5 10.5 0 015.34 19.53 10.5 10.5 0 018.908 5.117z" fill="#484848"/><ellipse data-name="楕円形 44" cx="8.67" cy="9.047" rx="8.67" ry="9.047" transform="rotate(-29.876 21.516 1.275)" fill="#fff"/><path data-name="パス 661" d="M7.931 18.502a.459.459 0 01-.4-.231 8.181 8.181 0 01-.875-6.065 7.545 7.545 0 013.575-4.785.46.46 0 01.458.8 6.633 6.633 0 00-3.141 4.209 7.265 7.265 0 00.78 5.386.46.46 0 01-.4.688z" fill="#4a4a4a"/></g><path data-name="パス 687" d="M36.464 350.403l12.335 8.581h-24.4v-8.849s4.021-8.313 12.065.268z"/><path data-name="パス 688" d="M81.785 350.403l12.335 8.581h-24.4v-8.849s4.017-8.313 12.065.268z"/><path data-name="パス 689" d="M57.833 240.093s-.752 47.615-7.93 58.32c-9.148 13.642-11.293 35.362-13.541 51.987l-14.542-.207s-2.6-34.044 9.278-51.011c1.877-2.681 3.763-25.667 2.7-31.085s-6.746-16.567 1.578-36.137 22.457 8.133 22.457 8.133z" fill="#c9c9c9"/><path data-name="パス 690" d="M66.497 234.295s11.875 50.576 10.458 57.92c-2.95 15.285 2.95 42.9 4.558 57.92H66.229s-12.635-31.021-5.363-50.412c2.413-6.435-5.9-26.547-8.581-31.373s-11.531-13.676-9.654-34.859 23.866.804 23.866.804z" fill="#ebebeb"/><path data-name="パス 691" d="M85.516 179.398l12.361-24.607 6.137-8.83a1.39 1.39 0 012.181.006l3.431 4.367a1.389 1.389 0 01-.256 1.968l-6 4.52-9.621 31a5.27 5.27 0 01-8.335-2.865 12.389 12.389 0 01.102-5.559z" fill="#ffd5c0"/><path data-name="パス 692" d="M62.347 178.801l25.027-3.629 6.042 12.074-40.267 12.218z" fill="#404040"/><path data-name="パス 693" d="M27.079 184.421L1.602 206.943c-1.145 1.543-1.235 8.357.422 9.329l33.365 13.2v-8.581l-17.7-10.994 5.215-4.4c5.048-5.384 7.275-11.493 4.941-18.494z" fill="#ffd5c0"/><path data-name="パス 694" d="M26.002 181.469l-24.4 25.474c-1.145 1.543-1.235 8.357.422 9.33l15.667-6.38 6.436-4.022c5.047-5.384 6.054-11.87 3.72-18.872z" fill="#404040"/><path data-name="パス 695" d="M53.996 151.562s6.887 14.634 3.157 16.643a15.352 15.352 0 01-6.6 2.009l1.148 11.478s-10.043 4.3-12.913-1.722c0 0 4.017-6.6 4.591-11.478-.002 0-9.182-15.782 10.617-16.93z" fill="#ffd5c0"/><path data-name="パス 696" d="M51.127 160.457s-2.3-1.757-2.3-.574c0 1.435 0 4.017 2.3 4.3 0 0-3.156 5.739-10.33 3.444s-7.174-10.617-.861-15.5 12.913-8.322 16.93.574c0 .009-6.6 4.313-5.739 7.756z" fill="#6f533a"/><path data-name="パス 697" d="M21.85 189.657a11.034 11.034 0 0111.042-10.6h29.315c3.218 0-2.413 25.206.268 38.613a184.858 184.858 0 004.827 19.843l-34.591.536s-11.52-30.494-10.861-48.392z" fill="#1a1a1a"/><path data-name="パス 698" d="M17.694 209.893l-14.346-4.871s-3.62 1.385-2.413 3.933c0 0-2.011 1.922-.134 3.441a2.844 2.844 0 001.341 3.933l16.536-5.854s-.447-.85-.984-.582z" fill="#262626"/><path data-name="パス 699" d="M87.457 174.983s-1.141-.917-1.6.344a1.262 1.262 0 00-1.873.3l2.369 13.877s1.873 1.08 2.5-.4c0 0 1.378.872 1.795-.116 0 0 2.992-.194 3.161-1.286-.004-.001-5.945-13.857-6.352-12.719z" fill="#262626"/></g></svg>