<svg xmlns="http://www.w3.org/2000/svg" width="120" height="30" viewBox="0 0 120 30"><g data-name="グループ 711"><g data-name="グループ 705"><path data-name="パス 1684" d="M9.483 12.467L2.542 5.538l9.441-2.547 6.941 6.929z" fill="#f38200"/><path data-name="パス 1685" d="M9.482 12.463l-2.56 9.446L0 14.999l2.541-9.465z" fill="#ffd900"/><path data-name="パス 1686" d="M17.618 20.535L15.077 30l-6.922-6.91 2.541-9.465z" fill="#78217c"/><path data-name="パス 1687" d="M17.619 20.535l9.442-2.526-2.534 9.439-9.449 2.551z" fill="#d91579"/><path data-name="パス 1688" d="M20.589 9.472l9.441-2.544-2.539 9.459-9.436 2.524z" fill="#4ca223"/><path data-name="パス 1689" d="M20.593 9.473l-6.941-6.929L23.093 0l6.941 6.929z" fill="#0092e5"/></g><g data-name="グループ 709"><path data-name="パス 1690" d="M61.723 9.088a1.728 1.728 0 11-1.728-1.725 1.722 1.722 0 011.728 1.725z" fill="#1a1311"/><g data-name="グループ 706"><path data-name="長方形 287" d="M58.298 12.859h3.394V24.74h-3.394z"/><path data-name="パス 1691" d="M80.058 18.581h-.047L71.292 7.032h-3.166v18.192h3.473V13.018h.047l9.035 12.085h2.849V6.967h-3.472z"/><path data-name="パス 1692" d="M119.999 9.588v-3.1h-9.454v18.245h9.454v-3.1h-5.89v-4.936h5.672v-3.1h-5.672V9.588z"/></g><g data-name="グループ 707"><path data-name="パス 1693" d="M45.444 10.856a2.207 2.207 0 012.263-2.088 3.115 3.115 0 012.053.818l2.425-1.8c-1.189-1.674-3.42-2.063-5.068-2.063a5.4 5.4 0 00-5.413 5.551c0 2.874 1.747 4.077 4.133 5.059 1.452.565 3.223 1.105 3.223 3.021a2.476 2.476 0 01-2.387 2.677 3.632 3.632 0 01-3.042-2.024l-2.512 1.48-.13.127a6.574 6.574 0 005.708 3.61c3.789 0 6.1-2.628 6.1-6.336.003-6.214-7.353-4.913-7.353-8.032z"/></g><g data-name="グループ 708"><path data-name="パス 1694" d="M101.971 19.566a5.838 5.838 0 110-7.419l3.518-1.152a9.373 9.373 0 100 9.729z"/></g></g></g></svg>