<svg xmlns="http://www.w3.org/2000/svg" width="185.797" height="46.449" viewBox="0 0 185.797 46.449"><g data-name="グループ 719"><g data-name="グループ 713"><g data-name="グループ 705"><path data-name="パス 1684" d="M14.676 19.297L3.929 8.569l14.618-3.938 10.747 10.728z" fill="#f38200"/><path data-name="パス 1685" d="M14.681 19.296l-3.963 14.625L0 23.221 3.934 8.566z" fill="#ffd900"/><path data-name="パス 1686" d="M27.278 31.794l-3.934 14.655-10.718-10.7 3.934-14.655z" fill="#78217c"/><path data-name="パス 1687" d="M27.279 31.794l14.62-3.91-3.923 14.615-14.63 3.95z" fill="#d91579"/><path data-name="パス 1688" d="M31.885 14.666l14.618-3.938-3.931 14.649-14.61 3.908z" fill="#4ca223"/><path data-name="パス 1689" d="M31.885 14.666L21.142 3.938 35.76 0l10.747 10.728z" fill="#0092e5"/></g><g data-name="グループ 709"><path data-name="パス 1690" d="M95.566 14.071a2.675 2.675 0 11-2.675-2.67 2.666 2.666 0 012.675 2.67z" fill="#fff"/><g data-name="グループ 706" fill="#fff"><path data-name="長方形 287" d="M90.264 19.91h5.254v18.396h-5.254z"/><path data-name="パス 1691" d="M123.954 28.769h-.073l-13.499-17.876h-4.9V39.06h5.377v-18.9h.073l13.99 18.711h4.411v-28.08h-5.378z"/><path data-name="パス 1692" d="M185.797 14.85v-4.8H171.16v28.249h14.638v-4.8h-9.12v-7.643h8.782v-4.8h-8.782V14.85z"/></g><g data-name="グループ 707"><path data-name="パス 1693" d="M70.36 16.809a3.417 3.417 0 013.5-3.233 4.823 4.823 0 013.179 1.266l3.754-2.787c-1.841-2.592-5.3-3.195-7.847-3.195a8.354 8.354 0 00-8.381 8.594c0 4.449 2.7 6.313 6.4 7.833 2.248.875 4.99 1.711 4.99 4.677 0 2.206-1.41 4.145-3.7 4.145a5.623 5.623 0 01-4.71-3.134l-3.889 2.291-.2.2c1.981 3.309 4.876 5.59 8.838 5.59 5.867 0 9.447-4.068 9.447-9.811.01-9.622-11.381-7.607-11.381-12.436z" fill="#fff"/></g><g data-name="グループ 708"><path data-name="パス 1694" d="M157.882 30.295a9.039 9.039 0 110-11.487l5.447-1.784a14.512 14.512 0 10-.005 15.063z" fill="#fff"/></g></g></g></g></svg>