<svg xmlns="http://www.w3.org/2000/svg" width="315.999" height="728.75" viewBox="0 0 315.999 728.75"><g data-name="グループ 719"><g data-name="パス 1473" fill="none"><path d="M273.747 0v105.573l-52.966 15.836-52.734-15.836V0z"/><path d="M272.747 1H169.042v103.83l51.74 15.535 51.965-15.537V1m1-1v105.573l-52.966 15.836-52.739-15.836V0h105.705z" fill="#00a1d5"/></g><g data-name="パス 1479" fill="none"><path d="M147.958.25v105.573l-52.966 15.836-52.734-15.836V.25z"/><path d="M146.958 1.25H43.253v103.83l51.74 15.535 51.965-15.537V1.25m1-1v105.573L94.992 121.66l-52.739-15.836V.25h105.705z" fill="#00a1d5"/></g><g data-name="パス 1474" fill="none"><path d="M273.747 125.637v95.573l-52.966 15.836-52.734-15.836v-95.573l53.159 16.262z"/><path d="M272.747 126.993l-51.246 15.862-.294.09-.294-.09-51.87-15.866v93.477l51.739 15.536 51.965-15.537v-93.472m1-1.356v95.573l-52.966 15.836-52.739-15.836v-95.573l53.164 16.262 52.541-16.262z" fill="#00a1d5"/></g><g data-name="パス 1668" fill="none"><path d="M273.747 239.637v95.573l-52.966 15.836-52.734-15.836v-95.573l53.159 16.262z"/><path d="M272.747 240.993l-51.246 15.862-.294.09-.294-.09-51.87-15.866v93.477l51.739 15.536 51.965-15.537v-93.472m1-1.356v95.573l-52.966 15.836-52.739-15.836v-95.573l53.164 16.262 52.541-16.262z" fill="#00a1d5"/></g><g data-name="パス 1477" fill="none"><path d="M147.958 125.637v95.573l-52.966 15.836-52.734-15.836v-95.573l53.159 16.262z"/><path d="M146.958 126.993l-51.246 15.862-.294.09-.294-.09-51.87-15.866v93.477l51.739 15.536 51.965-15.537v-93.472m1-1.356v95.573l-52.966 15.836-52.739-15.836v-95.573l53.164 16.262 52.541-16.262z" fill="#00a1d5"/></g><g data-name="パス 1669" fill="none"><path d="M147.958 239.637v95.573l-52.966 15.836-52.734-15.836v-95.573l53.159 16.262z"/><path d="M146.958 240.993l-51.246 15.862-.294.09-.294-.09-51.87-15.866v93.477l51.739 15.536 51.965-15.537v-93.472m1-1.356v95.573l-52.966 15.836-52.739-15.836v-95.573l53.164 16.262 52.541-16.262z" fill="#00a1d5"/></g><g data-name="パス 1476" fill="none"><path d="M273.747 353.912v130.151l-115.995 34.681-115.5-34.681V353.912l116.429 35.614z"/><path d="M272.747 355.268l-113.77 35.214-.294.09-.294-.09-115.135-35.218v128.055l114.499 34.38 114.994-34.38v-128.05m1-1.357v130.151l-115.995 34.68-115.498-34.68V353.912l116.427 35.614 115.066-35.614z" fill="#00a1d5"/></g><g data-name="パス 1670" fill="none"><path d="M273.747 502.912v130.151l-115.995 34.681-115.5-34.681V502.912l116.429 35.614z"/><path d="M272.747 504.268l-113.77 35.214-.294.09-.294-.09-115.135-35.218v128.055l114.499 34.38 114.994-34.38v-128.05m1-1.357v130.151l-115.995 34.68-115.498-34.68V502.912l116.427 35.614 115.066-35.614z" fill="#00a1d5"/></g><text data-name="商品／サービスの目標設計" transform="translate(49.942 48.25)" fill="#fff" font-size="11" font-family="HiraginoSans-W6, Hiragino Sans"><tspan x="1" y="10">商品／サービスの</tspan><tspan x="23" y="24">目標設計</tspan></text><text transform="translate(49.942 169.25)" fill="#fff" font-size="11" font-family="HiraginoSans-W6, Hiragino Sans"><tspan x="1" y="10">指標となるデータ</tspan><tspan x="34" y="24">設計</tspan></text><text transform="translate(49.942 290.25)" fill="#fff" font-size="11" font-family="HiraginoSans-W6, Hiragino Sans"><tspan x="12.605" y="10">システム連携</tspan></text><text data-name="ブランド / 商品 / サービスの再設計 Or 新規設計" transform="translate(175.942 39.25)" fill="#fff" font-size="11" font-family="HiraginoSans-W6, Hiragino Sans"><tspan x="3.167" y="12">ブランド</tspan><tspan y="12" font-family="NotoSans-Bold, Noto Sans" font-weight="700"> / </tspan><tspan y="12">商品</tspan><tspan y="12" font-family="NotoSans-Bold, Noto Sans" font-weight="700"> / </tspan><tspan x="1" y="26">サービスの再設計</tspan><tspan y="26" font-family="NotoSans-Bold, Noto Sans" font-weight="700"> </tspan><tspan x="14.695" y="40" font-family="NotoSans-Bold, Noto Sans" font-weight="700">Or </tspan><tspan y="40">新規設計</tspan></text><text data-name="セールス / マーケティング戦略・ プロセス設計" transform="translate(175.942 160.25)" fill="#fff" font-size="11" font-family="HiraginoSans-W6, Hiragino Sans"><tspan x="1.863" y="12">セールス</tspan><tspan y="12" font-family="NotoSans-Bold, Noto Sans" font-weight="700"> / </tspan><tspan y="12">マーケ</tspan><tspan x="6.5" y="26">ティング戦略・</tspan><tspan x="12" y="40">プロセス設計</tspan></text><text data-name="各プロセスの バリューUP" transform="translate(175.942 281.25)" fill="#fff" font-size="11" font-family="HiraginoSans-W6, Hiragino Sans"><tspan x="12" y="12">各プロセスの</tspan><tspan x="15.553" y="26">バリュー</tspan><tspan y="26" font-family="NotoSans-Bold, Noto Sans" font-weight="700">UP</tspan></text><text transform="translate(104.619 436.385)" fill="#fff" font-size="14" font-family="HiraginoSans-W6, Hiragino Sans"><tspan x="18.381" y="12">データ分析</tspan></text><text transform="translate(104.619 585.385)" fill="#fff" font-size="14" font-family="HiraginoSans-W6, Hiragino Sans"><tspan x="25.661" y="12">カイゼン</tspan></text><path data-name="線 4" fill="rgba(0,0,0,0)" stroke="#00a1d5" d="M.5 56.25v672.5"/><path data-name="線 5" fill="rgba(0,0,0,0)" stroke="#00a1d5" d="M.501 56.719h30.654"/><path data-name="線 6" fill="rgba(0,0,0,0)" stroke="#00a1d5" d="M31.155 56.719l-9.513-9.513"/><path data-name="線 7" fill="rgba(0,0,0,0)" stroke="#00a1d5" d="M158 687.617v40.168"/><path data-name="線 8" fill="rgba(0,0,0,0)" stroke="#00a1d5" d="M315.5 56.25v672.5"/><path data-name="線 9" fill="rgba(0,0,0,0)" stroke="#00a1d5" d="M315.5 728.25H1"/><path data-name="線 10" fill="rgba(0,0,0,0)" stroke="#00a1d5" d="M315.5 56.719h-30.654"/><path data-name="線 11" fill="rgba(0,0,0,0)" stroke="#00a1d5" d="M284.846 56.719l9.513-9.513"/></g></svg>