<svg xmlns="http://www.w3.org/2000/svg" width="771.45" height="431" viewBox="0 0 771.45 431"><g data-name="グループ 719"><g data-name="グループ 694"><path data-name="長方形 266" fill="#959595" d="M239 338h129v82H239z"/><path data-name="長方形 267" fill="#c9c9c9" d="M218 418h171v13H218z"/><path data-name="パス 1658" d="M16.513 0h574.974C600.607 0 608 6.107 608 13.641v344.718c0 7.534-7.393 13.641-16.513 13.641H16.513C7.393 372 0 365.893 0 358.359V13.641C0 6.107 7.393 0 16.513 0z" fill="#c9c9c9"/><path data-name="パス 1657" d="M27.421 10h553.158C590.2 10 598 16.671 598 24.9v322.2c0 8.229-7.8 14.9-17.421 14.9H27.421C17.8 362 10 355.329 10 347.1V24.9C10 16.671 17.8 10 27.421 10z" fill="#fff"/><g data-name="グループ 393" transform="translate(28.384 26.237)" fill="#d6d6d6"><circle data-name="楕円形 45" cx="4.133" cy="4.133" r="4.133"/><circle data-name="楕円形 46" cx="4.133" cy="4.133" r="4.133" transform="translate(12.006)"/><circle data-name="楕円形 47" cx="4.133" cy="4.133" r="4.133" transform="translate(24.013)"/></g><path data-name="長方形 186" fill="#61c4e5" d="M28.771 290.088h544v15.998h-544z"/><path data-name="長方形 282" fill="#e5e5e5" d="M28.771 322.088h544v15.998h-544z"/><path data-name="長方形 281" fill="#f4f4f4" d="M28.771 306.088h544v15.998h-544z"/><g data-name="グループ 692"><g data-name="楕円形 119" transform="translate(31 193)" fill="none" stroke="#fff"><circle cx="36.5" cy="36.5" r="36.5" stroke="none"/><circle cx="36.5" cy="36.5" r="36"/></g><g data-name="楕円形 120" transform="translate(116 193)" fill="none" stroke="#fff"><ellipse cx="37" cy="36.5" rx="37" ry="36.5" stroke="none"/><ellipse cx="37" cy="36.5" rx="36.5" ry="36"/></g><g data-name="楕円形 121" transform="translate(200 193)" fill="none" stroke="#fff"><ellipse cx="37" cy="36.5" rx="37" ry="36.5" stroke="none"/><ellipse cx="37" cy="36.5" rx="36.5" ry="36"/></g><path data-name="パス 1659" d="M67.739 192.98a36.755 36.755 0 0134.956 25.4 36.755 36.755 0 01-13.352 41.091 36.755 36.755 0 01-43.208 0l4.47-6.152a29.151 29.151 0 0034.269 0 29.151 29.151 0 0010.589-32.592 29.151 29.151 0 00-27.724-20.147z" fill="#00a1d5"/><path data-name="パス 1660" d="M46.135 259.47a36.755 36.755 0 01-15.151-29.735 36.755 36.755 0 0115.151-29.736l4.47 6.152a29.151 29.151 0 00-12.021 23.584 29.151 29.151 0 0012.021 23.583z" fill="#dedede"/><path data-name="パス 1661" d="M46.135 200a36.755 36.755 0 0121.6-7.02v7.6a29.151 29.151 0 00-17.134 5.567z" fill="#61c4e5"/><text data-name="60%" transform="translate(67.957 234.786)" font-size="14" font-family="dinosaur" font-weight="700"><tspan x="-13.23" y="0">60%</tspan></text><path data-name="パス 1662" d="M152.403 192.98a36.755 36.755 0 0121.6 7.02l-4.47 6.152a29.151 29.151 0 00-17.13-5.572z" fill="#00a1d5"/><path data-name="パス 1663" d="M174.006 199.999a36.755 36.755 0 0115.151 29.736 36.755 36.755 0 01-15.151 29.735l-4.467-6.152a29.151 29.151 0 0012.014-23.583 29.151 29.151 0 00-12.014-23.582z" fill="#dedede"/><path data-name="パス 1664" d="M174.007 259.471a36.755 36.755 0 01-43.208 0 36.755 36.755 0 01-13.349-41.091 36.755 36.755 0 0134.953-25.4v7.6a29.151 29.151 0 00-27.724 20.147 29.151 29.151 0 0010.59 32.591 29.151 29.151 0 0034.269 0z" fill="#61c4e5"/><text data-name="10%" transform="translate(152.635 234.786)" font-size="14" font-family="dinosaur" font-weight="700"><tspan x="-12.194" y="0">10%</tspan></text><path data-name="パス 1665" d="M237.066 192.98a36.755 36.755 0 0134.956 25.4l-7.232 2.35a29.151 29.151 0 00-27.724-20.15z" fill="#00a1d5"/><path data-name="パス 1666" d="M272.022 218.38a36.755 36.755 0 01-13.352 41.091 36.755 36.755 0 01-43.208 0 36.755 36.755 0 01-13.349-41.091 36.755 36.755 0 0134.953-25.4v7.6a29.151 29.151 0 00-27.724 20.147 29.151 29.151 0 0010.59 32.591 29.151 29.151 0 0034.269 0 29.151 29.151 0 0010.589-32.591z" fill="#dedede"/><text data-name="20%" transform="translate(237.791 235.836)" font-size="14" font-family="dinosaur" font-weight="700"><tspan x="-12.922" y="0">20%</tspan></text></g><g data-name="グループ 693"><g fill="#00a1d5"><path data-name="長方形 269" d="M31 136.684h10.565v24.838H31z"/><path data-name="長方形 270" d="M52.13 95.287h10.565v66.235H52.13z"/><path data-name="長方形 271" d="M73.261 103.567h10.565v57.956H73.261z"/><path data-name="長方形 272" d="M94.391 136.684h10.565v24.838H94.391z"/><path data-name="長方形 273" d="M115.522 106.879h10.565v54.644h-10.565z"/><path data-name="長方形 274" d="M136.652 70.449h10.565v91.073h-10.565z"/><path data-name="長方形 275" d="M157.783 111.846h10.565v49.676h-10.565z"/><path data-name="長方形 276" d="M178.913 87.008h10.565v74.514h-10.565z"/><path data-name="長方形 277" d="M200.043 62.17h10.565v99.353h-10.565z"/><path data-name="長方形 278" d="M221.174 70.449h10.565v91.073h-10.565z"/><path data-name="長方形 279" d="M242.304 88.664h10.565v72.859h-10.565z"/><path data-name="長方形 280" d="M263.435 34.02H274v127.503h-10.565z"/></g><g data-name="Chart"><g data-name="m1" fill="#fff" opacity=".38"><path data-name="長方形 269" d="M31 153.524h10.565v7.999H31z"/><path data-name="長方形 270" d="M52.13 140.193h10.565v21.33H52.13z"/><path data-name="長方形 271" d="M73.261 142.859h10.565v18.664H73.261z"/><path data-name="長方形 272" d="M94.391 153.524h10.565v7.999H94.391z"/><path data-name="長方形 273" d="M115.522 143.926h10.565v17.597h-10.565z"/><path data-name="長方形 274" d="M136.652 132.194h10.565v29.328h-10.565z"/><path data-name="長方形 275" d="M157.783 145.525h10.565v15.997h-10.565z"/><path data-name="長方形 276" d="M178.913 137.527h10.565v23.996h-10.565z"/><path data-name="長方形 277" d="M200.043 129.528h10.565v31.995h-10.565z"/><path data-name="長方形 278" d="M221.174 132.194h10.565v29.328h-10.565z"/><path data-name="長方形 279" d="M242.304 138.06h10.565v23.463h-10.565z"/><path data-name="長方形 280" d="M263.435 120.463H274v41.06h-10.565z"/></g></g><g data-name="X Axis" fill="#444" font-family="DINosaur-Book, DINosaur"><text transform="translate(35.557 167.765)" font-size="4"><tspan x="-2.978" y="0">Jan</tspan></text><text transform="translate(56.687 167.765)" font-size="4"><tspan x="-3.056" y="0">Feb</tspan></text><text transform="translate(77.404 167.765)" font-size="4"><tspan x="-3.222" y="0">Mar</tspan></text><text transform="translate(98.948 167.765)" font-size="4"><tspan x="-3.008" y="0">Apr</tspan></text><text transform="translate(119.665 167.765)" font-size="4"><tspan x="-3.412" y="0">May</tspan></text><text transform="translate(141.209 167.765)" font-size="4"><tspan x="-3.042" y="0">Jun</tspan></text><text transform="translate(162.168 167.765)" font-size="4"><tspan x="-2.49" y="0">Jul</tspan></text><text transform="translate(183.056 167.765)" font-size="4"><tspan x="-3.388" y="0">Aug</tspan></text><text transform="translate(204.187 167.765)" font-size="4"><tspan x="-3.178" y="0">Sep</tspan></text><text transform="translate(225.145 165.765)" font-size="3"><tspan x="-2.055" y="0">Oct</tspan></text><text transform="translate(246.447 167.765)" font-size="4"><tspan x="-3.258" y="0">Nov</tspan></text><text transform="translate(267.578 167.765)" font-size="4"><tspan x="-3.18" y="0">Dec</tspan></text></g></g><g data-name="Line Chart2"><g data-name="X Axis Line"><path data-name="線 27" fill="none" stroke="#d3d3d3" d="M307 265.999h258" opacity=".302"/></g><g data-name="X Axis Line"><path data-name="線 27" fill="none" stroke="#d3d3d3" d="M307 239.999h258" opacity=".302"/></g><g data-name="X Axis Line"><path data-name="線 27" fill="none" stroke="#d3d3d3" d="M307 214.999h258" opacity=".302"/></g><g data-name="X Axis Line"><path data-name="線 27" fill="none" stroke="#d3d3d3" d="M307 189.999h258" opacity=".302"/></g><g data-name="X Axis Line"><path data-name="線 27" fill="none" stroke="#d3d3d3" d="M307 164h258" opacity=".302"/></g><g data-name="X Axis Line"><path data-name="線 27" fill="none" stroke="#d3d3d3" d="M307 139h258" opacity=".302"/></g><g data-name="Chart"><g data-name="m1" stroke="#00a1d5" stroke-width="2"><path data-name="パス 1667" d="M307.36 259.78l23.36-53.427 23.36 10.177 23.36 43.25 23.36-38.162 23.36-47.067 23.36 53.427 23.36-31.8 23.36-33.074 23.36 11.449 23.36 22.9 23.357-69.968" fill="none"/><g fill="#00a1d5"><g data-name="楕円形 122" transform="translate(303 255.999)"><circle cx="5" cy="5" r="5" stroke="none"/><circle cx="5" cy="5" r="4" fill="none"/></g><g data-name="楕円形 123" transform="translate(326.36 201.993)"><circle cx="5" cy="5" r="5" stroke="none"/><circle cx="5" cy="5" r="4" fill="none"/></g><g data-name="楕円形 124" transform="translate(349.719 212.169)"><circle cx="5" cy="5" r="5" stroke="none"/><circle cx="5" cy="5" r="4" fill="none"/></g><g data-name="楕円形 125" transform="translate(373.079 255.42)"><circle cx="5" cy="5" r="5" stroke="none"/><circle cx="5" cy="5" r="4" fill="none"/></g><g data-name="楕円形 126" transform="translate(396.439 217.258)"><circle cx="5" cy="5" r="5" stroke="none"/><circle cx="5" cy="5" r="4" fill="none"/></g><g data-name="楕円形 127" transform="translate(419.799 170.191)"><circle cx="5" cy="5" r="5" stroke="none"/><circle cx="5" cy="5" r="4" fill="none"/></g><g data-name="楕円形 128" transform="translate(443.158 223.618)"><circle cx="5" cy="5" r="5" stroke="none"/><circle cx="5" cy="5" r="4" fill="none"/></g><g data-name="楕円形 129" transform="translate(466.518 191.816)"><circle cx="5" cy="5" r="5" stroke="none"/><circle cx="5" cy="5" r="4" fill="none"/></g><g data-name="楕円形 130" transform="translate(489.878 158.743)"><circle cx="5" cy="5" r="5" stroke="none"/><circle cx="5" cy="5" r="4" fill="none"/></g><g data-name="楕円形 131" transform="translate(513.238 170.191)"><circle cx="5" cy="5" r="5" stroke="none"/><circle cx="5" cy="5" r="4" fill="none"/></g><g data-name="楕円形 132" transform="translate(536.597 193.089)"><circle cx="5" cy="5" r="5" stroke="none"/><circle cx="5" cy="5" r="4" fill="none"/></g><g data-name="楕円形 133" transform="translate(559 122.999)"><circle cx="5" cy="5" r="5" stroke="none"/><circle cx="5" cy="5" r="4" fill="none"/></g></g></g></g></g><text data-name="7,822" transform="translate(304 89)" font-size="34" font-family="dinosaur" font-weight="700"><tspan x="0" y="0">7,822</tspan></text><text data-name="81,131" transform="translate(409 89)" font-size="34" font-family="dinosaur" font-weight="700"><tspan x="0" y="0">81,131</tspan></text><g data-name="グループ 645"><path data-name="パス 1248" d="M520.346 100.223l16.186-28.555-8.745-31.636a33.3 33.3 0 00-7.441 60.191z" fill="#00a1d5"/><path data-name="パス 1249" d="M529.906 39.447l8.574 31.016 31.017-8.575a33.3 33.3 0 00-39.591-22.441z" fill="#dedede"/><path data-name="パス 1250" d="M540.564 72.167l18.748 10.628 7.894 4.473a33.044 33.044 0 002.877-23.261z" fill="#61c4e5"/><path data-name="パス 1251" d="M538.128 73.313l-15.864 27.994a33.3 33.3 0 0043.862-12.126z" fill="#94d5ea"/></g><path data-name="線 28" fill="none" stroke="#dedede" d="M394.5 48.5v58"/></g><path data-name="パス 719" d="M653.951 74.034s-12.679-12.679-1.208-13.283 31.394-3.018 29.584 8.452-2.415 16.1-6.641 16.5-21.735-11.669-21.735-11.669z" fill="#6f533a"/><g data-name="グループ 400"><path data-name="パス 720" d="M618.186 171.028l-32.347-53.246c-13.277-3.306-9.273 9.02-9.273 9.02s30.126 69.506 41.154 69.029c10.731-.467.466-24.803.466-24.803z" fill="#ffd5c0"/><path data-name="パス 721" d="M665.96 109.234c-8.4 5.813-47.773 61.8-47.773 61.8l-24.572-40.62-13.223 7.906s28.3 60.919 37.635 58.13 43.031-36.915 53.295-59.237 1.135-30.635-5.362-27.979z" fill="#404040"/><g data-name="グループ 399" fill="#ffd5c0"><path data-name="パス 722" d="M652.526 66.549s-9.343 28.741 8.083 27.142c10.8-.991 14.709-9.114 14.709-9.114s3.776 1.189 4.24-6.472c.275-4.552-5.433-7-5.7.132 0 0-4.108 1.255-4.9-4.821s-3.975-5.812-7.421-4.755-8.481-.262-9.011-2.112z"/><path data-name="パス 723" d="M676.576 83.653s1.855 12.481 5.632 18.095c0 0 7.113 1.3 10.628 2.315 4.277 1.24-17.386 37.9-24.144 27.337s-4.649-19.486-4.649-19.486 3.331-3.927 3.067-4.983-4.778-14.89-4.778-14.89-.134-13.738 14.244-8.388z"/></g><path data-name="パス 724" d="M683.816 101.97s21.093 2.3 28.43 4.8c1.24.423 10.3 51.753 10.445 53.055 1.394 12.611 8.433 49.065 8.4 52.122l-62.207.93s-3.818-43.932-11.587-70.608c-3.708-12.733-.482-24.879 9.311-33.85l.45 2.938c.278 1.815 2.081 2.694 4.307 2.851a10.462 10.462 0 0010.434-6.86z" fill="#1a1a1a"/><path data-name="パス 725" d="M688.947 416.956c.056.359.112.719.168 1.066a78.565 78.565 0 003.1 12.775h-46.657l25.348-12.508c0-.076 0-.164-.005-.268-.093-7.928-3.928-93.193-7.614-106.989-3.733-13.973 5.6-98.207 5.6-98.207l50-.331c5.673 27.745-26.673 97.341-26.673 97.341 12.13 27.147-4.512 98.873-3.267 107.121z" fill="#c9c9c9"/><path data-name="パス 726" d="M694.565 178.281l-63.9 39.857c-5.872 8.461 4.625 9.158 4.625 9.158s68.179-29.379 77.137-35.808c7.78-5.58-17.862-13.207-17.862-13.207z" fill="#ffd5c0"/><path data-name="パス 727" d="M733.103 427.078l13.6-18.413a.584.584 0 00-.026-.055c-1.186-2.444-42.081-86.743-45.295-94.359-16.051-38-14.54-101.465-14.54-101.465l35.924-.506c10.593 28.191 3.695 94.513 3.695 94.513 15.862 11.753 33.838 96 33.838 96l.166.29 8.143 14.205z" fill="#ebebeb"/><path data-name="パス 728" d="M710.409 105.923c7 1.86 9.591 5.879 8.833 28.607-.644 19.3.872 30.1-.6 43.793a23.151 23.151 0 01-12.826 18.212l-51.86 25.643-7.932-13.719 48.055-30.3s.93-45.387 1.4-52.828 4.217-22.253 14.93-19.408z" fill="#404040"/><path data-name="パス 729" d="M727.594 430.694l18.685-22.525 15.112-5.963 10.059 16.862z" fill="#2c2c2c"/><path data-name="パス 730" d="M645.558 430.693l25.348-14.57c0-.088 0-.191-.005-.311h18.218a103.986 103.986 0 003.1 14.881z" fill="#2c2c2c"/></g></g></svg>