<svg xmlns="http://www.w3.org/2000/svg" width="250.871" height="221.432" viewBox="0 0 250.871 221.432"><g data-name="グループ 697" opacity=".201"><g data-name="グループ 695"><g data-name="楕円形 119" transform="translate(0 145.208)" fill="none" stroke="#fff"><circle cx="38" cy="38" r="38" stroke="none"/><circle cx="38" cy="38" r="37.5"/></g><path data-name="パス 1659" d="M38.341 145.688a37.872 37.872 0 0136.019 26.169 37.872 37.872 0 01-13.758 42.342 37.872 37.872 0 01-44.521 0l4.606-6.339a30.037 30.037 0 0035.31 0 30.036 30.036 0 0010.911-33.582 30.037 30.037 0 00-28.567-20.754z" fill="#00a1d5"/><path data-name="パス 1660" d="M16.081 214.199A37.872 37.872 0 01.47 183.559a37.872 37.872 0 0115.611-30.639l4.606 6.339a30.037 30.037 0 00-12.382 24.3 30.037 30.037 0 0012.382 24.3z" fill="#dedede"/><path data-name="パス 1661" d="M16.081 152.921a37.872 37.872 0 0122.26-7.233v7.836a30.037 30.037 0 00-17.655 5.736z" fill="#61c4e5"/><path data-name="パス 1662" d="M125.578 145.688a37.872 37.872 0 0122.261 7.233l-4.606 6.339a30.037 30.037 0 00-17.655-5.736z" fill="#00a1d5"/><path data-name="パス 1663" d="M147.836 152.92a37.872 37.872 0 0115.615 30.639 37.872 37.872 0 01-15.615 30.64l-4.6-6.339a30.036 30.036 0 0012.382-24.3 30.037 30.037 0 00-12.382-24.301z" fill="#dedede"/><path data-name="パス 1664" d="M147.839 214.199a37.872 37.872 0 01-44.521 0 37.872 37.872 0 01-13.759-42.342 37.872 37.872 0 0136.019-26.169v7.836a30.037 30.037 0 00-28.57 20.754 30.036 30.036 0 0010.915 33.582 30.037 30.037 0 0035.31 0z" fill="#61c4e5"/><path data-name="パス 1665" d="M212.815 145.688a37.872 37.872 0 0136.019 26.169l-7.453 2.421a30.037 30.037 0 00-28.566-20.754z" fill="#00a1d5"/><path data-name="パス 1666" d="M248.833 171.857a37.872 37.872 0 01-13.757 42.342 37.872 37.872 0 01-44.521 0 37.872 37.872 0 01-13.759-42.342 37.872 37.872 0 0136.019-26.169v7.836a30.037 30.037 0 00-28.57 20.754 30.037 30.037 0 0010.915 33.582 30.037 30.037 0 0035.31 0 30.037 30.037 0 0010.911-33.582z" fill="#dedede"/></g><g data-name="グループ 696"><g fill="#00a1d5"><path data-name="長方形 269" d="M.485 105.784h10.886v25.593H.485z"/><path data-name="長方形 270" d="M22.258 63.129h10.886v68.248H22.258z"/><path data-name="長方形 271" d="M44.03 71.66h10.886v59.717H44.03z"/><path data-name="長方形 272" d="M65.803 105.784h10.886v25.593H65.803z"/><path data-name="長方形 273" d="M87.576 75.073h10.886v56.305H87.576z"/><path data-name="長方形 274" d="M109.348 37.536h10.886v93.841h-10.886z"/><path data-name="長方形 275" d="M131.121 80.191h10.886v51.186h-10.886z"/><path data-name="長方形 276" d="M152.893 54.598h10.886v76.779h-10.886z"/><path data-name="長方形 277" d="M174.666 29.005h10.886v102.372h-10.886z"/><path data-name="長方形 278" d="M196.439 37.536h10.886v93.841h-10.886z"/><path data-name="長方形 279" d="M218.211 56.305h10.886v75.073h-10.886z"/><path data-name="長方形 280" d="M239.984 0h10.886v131.377h-10.886z"/></g><g data-name="Chart"><g data-name="m1" fill="#fff" opacity=".38"><path data-name="長方形 269" d="M.485 123.136h10.886v8.242H.485z"/><path data-name="長方形 270" d="M22.258 109.4h10.886v21.978H22.258z"/><path data-name="長方形 271" d="M44.03 112.147h10.886v19.231H44.03z"/><path data-name="長方形 272" d="M65.803 123.136h10.886v8.242H65.803z"/><path data-name="長方形 273" d="M87.576 113.246h10.886v18.132H87.576z"/><path data-name="長方形 274" d="M109.348 101.158h10.886v30.22h-10.886z"/><path data-name="長方形 275" d="M131.121 114.894h10.886v16.483h-10.886z"/><path data-name="長方形 276" d="M152.893 106.652h10.886v24.725h-10.886z"/><path data-name="長方形 277" d="M174.666 98.411h10.886v32.967h-10.886z"/><path data-name="長方形 278" d="M196.439 101.158h10.886v30.22h-10.886z"/><path data-name="長方形 279" d="M218.211 107.202h10.886v24.176h-10.886z"/><path data-name="長方形 280" d="M239.984 89.07h10.886v42.308h-10.886z"/></g></g></g></g></svg>