<svg xmlns="http://www.w3.org/2000/svg" width="804" height="745" viewBox="0 0 804 745"><defs><clipPath id="a"><path data-name="長方形 283" transform="translate(562 6774)" fill="#fff" stroke="#707070" d="M0 0h804v745H0z"/></clipPath></defs><g data-name="マスクグループ 4" transform="translate(-562 -6774)" clip-path="url(#a)"><g data-name="グループ 697" opacity=".201"><g data-name="グループ 695"><g data-name="楕円形 119" transform="translate(623.999 7307)" fill="none" stroke="#fff"><ellipse cx="124" cy="123.5" rx="124" ry="123.5" stroke="none"/><ellipse cx="124" cy="123.5" rx="123.5" ry="123"/></g><path data-name="パス 1659" d="M748.859 7307.157a124.429 124.429 0 11-73.137 225.094l15.132-20.827a98.685 98.685 0 1058.005-178.523z" fill="#00a1d5"/><path data-name="パス 1660" d="M675.721 7532.25a124.429 124.429 0 010-201.33l15.132 20.828a98.685 98.685 0 000 159.676z" fill="#dedede"/><path data-name="パス 1661" d="M675.722 7330.921a124.429 124.429 0 0173.137-23.764v25.744a98.685 98.685 0 00-58.006 18.847z" fill="#61c4e5"/><path data-name="パス 1662" d="M1035.475 7307.157a124.429 124.429 0 0173.138 23.764l-15.132 20.827a98.685 98.685 0 00-58.006-18.847z" fill="#00a1d5"/><path data-name="パス 1663" d="M1108.613 7330.92a124.429 124.429 0 0151.291 100.665 124.429 124.429 0 01-51.291 100.665l-15.13-20.827a98.685 98.685 0 0040.677-79.838 98.685 98.685 0 00-40.677-79.837z" fill="#dedede"/><path data-name="パス 1664" d="M1108.612 7532.251a124.429 124.429 0 11-73.137-225.094v25.744a98.685 98.685 0 1058.006 178.523z" fill="#61c4e5"/><path data-name="パス 1665" d="M1322.091 7307.157a124.429 124.429 0 01118.339 85.978l-24.484 7.956a98.685 98.685 0 00-93.855-68.19z" fill="#00a1d5"/><path data-name="パス 1666" d="M1440.43 7393.135a124.429 124.429 0 11-118.339-85.978v25.744a98.685 98.685 0 1093.855 68.19z" fill="#dedede"/></g><g data-name="グループ 696"><g fill="#00a1d5"><path data-name="長方形 269" d="M624.483 7176.055h35.767v84.086h-35.767z"/><path data-name="長方形 270" d="M696.017 7035.912h35.767v224.229h-35.767z"/><path data-name="長方形 271" d="M767.551 7063.94h35.767v196.2h-35.767z"/><path data-name="長方形 272" d="M839.085 7176.055h35.767v84.086h-35.767z"/><path data-name="長方形 273" d="M910.619 7075.152h35.767v184.989h-35.767z"/><path data-name="長方形 274" d="M982.153 6951.826h35.767v308.315h-35.767z"/><path data-name="長方形 275" d="M1053.687 7091.969h35.767v168.172h-35.767z"/><path data-name="長方形 276" d="M1125.221 7007.883h35.767v252.258h-35.767z"/><path data-name="長方形 277" d="M1196.755 6923.797h35.767v336.343h-35.767z"/><path data-name="長方形 278" d="M1268.289 6951.826h35.767v308.315h-35.767z"/><path data-name="長方形 279" d="M1339.823 7013.489h35.767v246.652h-35.767z"/><path data-name="長方形 280" d="M1411.357 6828.5h35.767v431.641h-35.767z"/></g><g data-name="Chart"><g data-name="m1" fill="#fff" opacity=".38"><path data-name="長方形 269" d="M624.483 7233.062h35.767v27.078h-35.767z"/><path data-name="長方形 270" d="M696.017 7187.932h35.767v72.209h-35.767z"/><path data-name="長方形 271" d="M767.551 7196.958h35.767v63.183h-35.767z"/><path data-name="長方形 272" d="M839.085 7233.062h35.767v27.078h-35.767z"/><path data-name="長方形 273" d="M910.619 7200.569h35.767v59.572h-35.767z"/><path data-name="長方形 274" d="M982.153 7160.854h35.767v99.287h-35.767z"/><path data-name="長方形 275" d="M1053.687 7205.984h35.767v54.156h-35.767z"/><path data-name="長方形 276" d="M1125.221 7178.906h35.767v81.235h-35.767z"/><path data-name="長方形 277" d="M1196.755 7151.828h35.767v108.313h-35.767z"/><path data-name="長方形 278" d="M1268.289 7160.854h35.767v99.287h-35.767z"/><path data-name="長方形 279" d="M1339.823 7180.711h35.767v79.43h-35.767z"/><path data-name="長方形 280" d="M1411.357 7121.139h35.767v139.002h-35.767z"/></g></g></g></g></g></svg>